<svg viewBox="0 0 720 720" fill="none" xmlns="http://www.w3.org/2000/svg">
<rect y="630" width="90" height="90" fill="#5D5D5A"/>
<rect x="90" y="630" width="90" height="90" fill="#FFA45C"/>
<rect x="180" y="630" width="90" height="90" fill="#5D5D5A"/>
<rect x="270" y="630" width="90" height="90" fill="#FFA45C"/>
<rect x="360" y="630" width="90" height="90" fill="#5D5D5A"/>
<rect x="450" y="630" width="90" height="90" fill="#FFA45C"/>
<rect x="540" y="630" width="90" height="90" fill="#5D5D5A"/>
<rect x="630" y="630" width="90" height="90" fill="#FFA45C"/>
<rect y="540" width="90" height="90" fill="#FFA45C"/>
<rect x="90" y="540" width="90" height="90" fill="#5D5D5A"/>
<rect x="180" y="540" width="90" height="90" fill="#FFA45C"/>
<rect x="270" y="540" width="90" height="90" fill="#5D5D5A"/>
<rect x="360" y="540" width="90" height="90" fill="#FFA45C"/>
<rect x="450" y="540" width="90" height="90" fill="#5D5D5A"/>
<rect x="540" y="540" width="90" height="90" fill="#FFA45C"/>
<rect x="630" y="540" width="90" height="90" fill="#5D5D5A"/>
<rect y="450" width="90" height="90" fill="#5D5D5A"/>
<rect x="90" y="450" width="90" height="90" fill="#FFA45C"/>
<rect x="180" y="450" width="90" height="90" fill="#5D5D5A"/>
<rect x="270" y="450" width="90" height="90" fill="#FFA45C"/>
<rect x="360" y="450" width="90" height="90" fill="#5D5D5A"/>
<rect x="450" y="450" width="90" height="90" fill="#FFA45C"/>
<rect x="540" y="450" width="90" height="90" fill="#5D5D5A"/>
<rect x="630" y="450" width="90" height="90" fill="#FFA45C"/>
<rect y="360" width="90" height="90" fill="#FFA45C"/>
<rect x="90" y="360" width="90" height="90" fill="#5D5D5A"/>
<rect x="180" y="360" width="90" height="90" fill="#FFA45C"/>
<rect x="270" y="360" width="90" height="90" fill="#5D5D5A"/>
<rect x="360" y="360" width="90" height="90" fill="#FFA45C"/>
<rect x="450" y="360" width="90" height="90" fill="#5D5D5A"/>
<rect x="540" y="360" width="90" height="90" fill="#FFA45C"/>
<rect x="630" y="360" width="90" height="90" fill="#5D5D5A"/>
<rect y="270" width="90" height="90" fill="#5D5D5A"/>
<rect x="90" y="270" width="90" height="90" fill="#FFA45C"/>
<rect x="180" y="270" width="90" height="90" fill="#5D5D5A"/>
<rect x="270" y="270" width="90" height="90" fill="#FFA45C"/>
<rect x="360" y="270" width="90" height="90" fill="#5D5D5A"/>
<rect x="450" y="270" width="90" height="90" fill="#FFA45C"/>
<rect x="540" y="270" width="90" height="90" fill="#5D5D5A"/>
<rect x="630" y="270" width="90" height="90" fill="#FFA45C"/>
<rect y="180" width="90" height="90" fill="#FFA45C"/>
<rect x="90" y="180" width="90" height="90" fill="#5D5D5A"/>
<rect x="180" y="180" width="90" height="90" fill="#FFA45C"/>
<rect x="270" y="180" width="90" height="90" fill="#5D5D5A"/>
<rect x="360" y="180" width="90" height="90" fill="#FFA45C"/>
<rect x="450" y="180" width="90" height="90" fill="#5D5D5A"/>
<rect x="540" y="180" width="90" height="90" fill="#FFA45C"/>
<rect x="630" y="180" width="90" height="90" fill="#5D5D5A"/>
<rect y="90" width="90" height="90" fill="#5D5D5A"/>
<rect x="90" y="90" width="90" height="90" fill="#FFA45C"/>
<rect x="180" y="90" width="90" height="90" fill="#5D5D5A"/>
<rect x="270" y="90" width="90" height="90" fill="#FFA45C"/>
<rect x="360" y="90" width="90" height="90" fill="#5D5D5A"/>
<rect x="450" y="90" width="90" height="90" fill="#FFA45C"/>
<rect x="540" y="90" width="90" height="90" fill="#5D5D5A"/>
<rect x="630" y="90" width="90" height="90" fill="#FFA45C"/>
<rect width="90" height="90" fill="#FFA45C"/>
<rect x="90" width="90" height="90" fill="#5D5D5A"/>
<rect x="180" width="90" height="90" fill="#FFA45C"/>
<rect x="270" width="90" height="90" fill="#5D5D5A"/>
<rect x="360" width="90" height="90" fill="#FFA45C"/>
<rect x="450" width="90" height="90" fill="#5D5D5A"/>
<rect x="540" width="90" height="90" fill="#FFA45C"/>
<rect x="630" width="90" height="90" fill="#5D5D5A"/>
</svg>
