<svg width="132" height="199" viewBox="0 0 132 199" fill="none" xmlns="http://www.w3.org/2000/svg">
<path d="M90.6583 168.968C78.8605 145.547 80.0526 103.828 81.0389 87.6632C99.6973 86.3836 113.116 82.8503 113.116 78.6858C113.116 74.5981 100.2 71.1157 82.0825 69.7792C93.6529 63.8158 101.57 51.7615 101.57 37.8495C101.57 18.0143 85.4989 1.93689 65.6641 1.93689C45.8293 1.93689 29.7578 18.0147 29.7578 37.8495C29.7578 51.7612 37.6784 63.8154 49.2456 69.7792C31.131 71.1157 18.2088 74.598 18.2088 78.6858C18.2088 82.8503 31.6351 86.3836 50.2895 87.6632C51.2788 103.83 52.4708 145.548 40.6731 168.968C17.5505 173.616 1.32495 184.529 1.32495 197.239H130C130 184.529 113.798 173.612 90.674 168.956L90.6583 168.968Z" fill="black" stroke="black" stroke-width="2.4843" stroke-linejoin="round"/>
</svg>
