<svg width="201" height="195" viewBox="0 0 201 195" fill="none" xmlns="http://www.w3.org/2000/svg">
<path d="M118.875 62.8433C123.131 60.327 124.928 56.9614 124.928 53.2575C124.928 52.173 125.081 1.0827 125.081 1.0827H74.4293C74.4293 1.0827 74.1912 52.6125 74.1912 53.2575C74.1912 56.9888 76.835 60.3777 81.1484 62.8999C78.0976 63.3439 75.0805 63.8876 72.0971 64.5421C76.8685 67.5914 81.3755 71.1524 85.5448 75.214C91.4529 80.961 96.341 87.3252 100.179 94.1874C104.016 87.3252 108.907 80.9609 114.809 75.214C118.987 71.1524 123.498 67.5853 128.269 64.5362C125.217 63.8755 122.071 63.3407 118.925 62.8688L118.875 62.8433Z" fill="black" stroke="black" stroke-width="0.975"/>
<path d="M165.469 178.965C162.335 172.682 162.249 164.467 163.641 158.918C165.067 153.21 178.588 142.408 178.588 142.408C202.408 119.239 207.862 86.212 190.773 68.6443C173.678 51.0781 140.52 55.6299 116.701 78.8015C109.589 85.7235 104.132 93.5227 100.402 101.529C96.6754 93.5227 91.2129 85.7236 84.1034 78.8015C60.2882 55.6299 27.1246 51.0782 10.0318 68.6443C-7.0552 86.2105 -1.59859 119.24 22.2154 142.408C23.2907 143.452 35.161 153.21 36.588 158.918C38.012 164.62 38.2102 172.818 34.7845 179.177H35.2991C35.2238 179.22 35.1501 179.248 35.0733 179.291C54.7823 189.012 76.9635 194.48 100.421 194.48C123.859 194.449 145.724 188.66 165.45 178.939" fill="black"/>
<path d="M38.5244 177.801C57.4931 168.95 78.4671 164.037 100.779 164.037C122.212 164.037 142.783 169.3 161.134 176.775" fill="black"/>
<path d="M38.5244 177.801C57.4931 168.95 78.4671 164.037 100.779 164.037C122.212 164.037 142.783 169.3 161.134 176.775" stroke="white" stroke-width="3.1741" stroke-linecap="round"/>
<path d="M170.251 141.055C150.496 134.351 126.288 130.4 100.131 130.4C73.7456 130.4 49.3467 134.425 29.4949 141.236" fill="black"/>
<path d="M170.251 141.055C150.496 134.351 126.288 130.4 100.131 130.4C73.7456 130.4 49.3467 134.425 29.4949 141.236" stroke="white" stroke-width="3.1741" stroke-linecap="round"/>
<path d="M120.952 4.76639L78.4481 42.8656H120.952L78.4481 4.76639H120.952Z" stroke="white" stroke-width="1.9503" stroke-linejoin="bevel"/>
<path d="M157.887 164.305C139.696 157.917 120.341 153.284 100.266 153.284C79.8043 153.284 60.0938 158.046 41.6073 164.658" stroke="white" stroke-width="3.1741" stroke-linecap="round"/>
<path d="M90.309 142.88L100.282 147.851L110.255 142.88L100.282 137.878L90.309 142.88Z" fill="white" stroke="black" stroke-width="0.9974"/>
<path d="M49.567 149.361L60.2008 152.664L69.2301 146.152L58.5963 142.817L49.567 149.361Z" fill="white" stroke="black" stroke-width="0.9974"/>
<path d="M151.029 149.361L140.363 152.664L131.334 146.152L141.968 142.817L151.029 149.361Z" fill="white" stroke="black" stroke-width="0.9974"/>
<path d="M120.971 4.76639H78.4481V42.8656H120.971V4.76639Z" stroke="white" stroke-width="1.9503" stroke-linejoin="bevel"/>
<path d="M100.062 73.4414C109.963 73.4414 117.989 67.5132 117.989 60.2005C117.989 52.8877 109.963 46.9596 100.062 46.9596C90.1609 46.9596 82.1347 52.8877 82.1347 60.2005C82.1347 67.5132 90.1609 73.4414 100.062 73.4414Z" stroke="white" stroke-width="1.9503"/>
</svg>
