<svg width="224" height="200" viewBox="0 0 224 200" fill="none" xmlns="http://www.w3.org/2000/svg">
<path d="M220.453 53.3645C223.129 48.7712 221.584 42.8786 216.991 40.201C212.407 37.5219 206.514 39.0704 203.835 43.662C201.537 47.5978 202.354 52.4811 205.522 55.4844C192.415 71.3746 168.498 100.36 162.719 107.389C161.023 106.633 159.266 105.912 157.441 105.238C157.957 99.8506 161.745 58.7042 163.757 36.8231C168.123 36.923 172.148 34.0319 173.291 29.6214C174.621 24.4753 171.531 19.2261 166.388 17.8928C161.238 16.5625 155.991 19.6533 154.657 24.7978C153.518 29.2051 155.631 33.6861 159.5 35.7217C150.021 57.2281 131.63 98.9801 131.584 99.1532C131.575 99.1947 131.581 99.2377 131.572 99.2791C129.901 99.0779 128.183 98.9043 126.438 98.7599C126.088 96.4464 118.201 48.0481 114.087 22.8416C118.813 21.7371 122.337 17.508 122.337 12.4447C122.337 6.5382 117.55 1.74991 111.642 1.74991C105.74 1.74991 100.95 6.5383 100.95 12.4447C100.95 17.508 104.477 21.737 109.202 22.8416C105.11 47.9336 97.2722 96.0039 96.8607 98.719C95.0296 98.8634 93.2446 99.0416 91.4963 99.2428C91.484 99.1829 91.4871 99.1322 91.4687 99.0754C91.4257 98.9033 73.0313 57.1475 63.5595 35.6408C67.4244 33.6115 69.5384 29.129 68.3986 24.7185C67.0652 19.5753 61.8143 16.4846 56.6683 17.8166C51.5283 19.1485 48.4345 24.3992 49.7678 29.5421C50.9107 33.9539 54.9323 36.8436 59.2982 36.7423C61.3075 58.6007 65.0836 99.661 65.615 105.138C63.8207 105.788 62.1002 106.489 60.429 107.223C54.4225 99.9215 30.7714 71.2537 17.7585 55.4886C20.9322 52.4854 21.7526 47.602 19.4546 43.6662C16.7786 39.0745 10.8826 37.526 6.29254 40.2052C1.70554 42.8828 0.157038 48.7755 2.83624 53.3687C5.13124 57.2997 9.78915 58.9926 13.9644 57.7069C21.7897 78.0873 47.0486 143.683 48.0144 144.586H48.0236C48.042 144.7 50.5245 160.971 50.798 166.366C51.0714 171.733 48.7365 184.865 48.9055 184.942V184.954C48.9086 184.954 48.9115 184.948 48.9146 184.948C67.6467 193.719 88.9801 198.65 111.858 198.65C134.95 198.65 176.633 184.53 176.438 184.438C173.713 178.686 174.742 144.58 174.742 144.58C175.707 143.668 201.297 78.6222 209.327 57.707C213.449 58.9969 218.105 57.298 220.402 53.3654" fill="black"/>
<path d="M220.453 53.3645C223.129 48.7712 221.584 42.8786 216.991 40.201C212.407 37.5219 206.514 39.0704 203.835 43.662C201.537 47.5978 202.354 52.4811 205.522 55.4844C192.415 71.3746 168.498 100.36 162.719 107.389C161.023 106.633 159.266 105.912 157.441 105.238C157.957 99.8506 161.745 58.7042 163.757 36.8231C168.123 36.923 172.148 34.0319 173.291 29.6214C174.621 24.4753 171.531 19.2261 166.388 17.8928C161.238 16.5625 155.991 19.6533 154.657 24.7978C153.518 29.2051 155.631 33.6861 159.5 35.7217C150.021 57.2281 131.63 98.9801 131.584 99.1532C131.575 99.1947 131.581 99.2377 131.572 99.2791C129.901 99.0779 128.183 98.9043 126.438 98.7599C126.088 96.4464 118.201 48.0481 114.087 22.8416C118.813 21.7371 122.337 17.508 122.337 12.4447C122.337 6.5382 117.55 1.74991 111.642 1.74991C105.74 1.74991 100.95 6.5383 100.95 12.4447C100.95 17.508 104.477 21.737 109.202 22.8416C105.11 47.9336 97.2722 96.0039 96.8607 98.719C95.0296 98.8634 93.2446 99.0416 91.4963 99.2428C91.484 99.1829 91.4871 99.1322 91.4687 99.0754C91.4257 98.9033 73.0313 57.1475 63.5595 35.6408C67.4244 33.6115 69.5384 29.129 68.3986 24.7185C67.0652 19.5753 61.8143 16.4846 56.6683 17.8166C51.5283 19.1485 48.4345 24.3992 49.7678 29.5421C50.9107 33.9539 54.9323 36.8436 59.2982 36.7423C61.3075 58.6007 65.0836 99.661 65.615 105.138C63.8207 105.788 62.1002 106.489 60.429 107.223C54.4225 99.9215 30.7714 71.2537 17.7585 55.4886C20.9322 52.4854 21.7526 47.602 19.4546 43.6662C16.7786 39.0745 10.8826 37.526 6.29254 40.2052C1.70554 42.8828 0.157038 48.7755 2.83624 53.3687C5.13124 57.2997 9.78915 58.9926 13.9644 57.7069C21.7897 78.0873 47.0486 143.683 48.0144 144.586H48.0236C48.042 144.7 50.5245 160.971 50.798 166.366C51.0714 171.733 48.7365 184.865 48.9055 184.942V184.954C48.9086 184.954 48.9115 184.948 48.9146 184.948C67.6467 193.719 88.9801 198.65 111.858 198.65C134.95 198.65 176.633 184.53 176.438 184.438C173.713 178.686 174.742 144.58 174.742 144.58C175.707 143.668 201.297 78.6222 209.327 57.707C213.449 58.9969 218.105 57.298 220.402 53.3654" stroke="black" stroke-width="2.684" stroke-linejoin="bevel"/>
<path d="M53.553 181.033C73.2497 172.916 91.6868 169.432 114.279 169.432C135.976 169.432 153.344 173.023 171.503 180.547" fill="black"/>
<path d="M53.553 181.033C73.2497 172.916 91.6868 169.432 114.279 169.432C135.976 169.432 153.344 173.023 171.503 180.547" stroke="white" stroke-width="2.9123" stroke-linecap="round"/>
<path d="M167.756 142.997C151.734 136.84 132.105 133.217 110.9 133.217C89.504 133.217 69.7177 136.904 53.6191 143.16" fill="black"/>
<path d="M167.756 142.997C151.734 136.84 132.105 133.217 110.9 133.217C89.504 133.217 69.7177 136.904 53.6191 143.16" stroke="white" stroke-width="2.9123" stroke-linecap="round"/>
<path d="M169.675 169.801C151.942 163.942 133.888 159.69 113.562 159.69C92.8508 159.69 72.8921 164.065 54.1791 170.136" stroke="white" stroke-width="2.9123" stroke-linecap="round"/>
<path d="M102.789 147.904L111.724 152.372L120.69 147.904L111.724 143.437L102.789 147.904Z" fill="white"/>
<path d="M157.248 153.725L147.715 156.714L139.599 150.862L149.131 147.873L157.248 153.725Z" fill="white"/>
<path d="M66.2317 153.725L75.7644 156.714L83.8813 150.862L74.3486 147.873L66.2317 153.725Z" fill="white"/>
</svg>
