<svg width="215" height="204" viewBox="0 0 215 204" fill="none" xmlns="http://www.w3.org/2000/svg">
<path d="M54.9055 25.4429C54.9055 25.4429 58.3958 6.68618 58.3958 4.06838C58.3958 1.45378 61.0104 1.01599 63.628 4.50619C66.2456 7.99639 78.022 25.0048 78.022 25.0048L54.8982 25.4138L54.9055 25.4429Z" fill="black" stroke="#20201E" stroke-width="2.684"/>
<path d="M211.36 169.314C210.178 160.859 208.559 152.797 206.592 145.131L200.272 142.606L204.494 137.558C202.088 129.45 199.292 121.815 196.223 114.64L190.244 112.947L193.233 107.85C190.019 101.025 186.569 94.6573 182.984 88.7294L177.41 87.6111L179.41 83.0071C175.395 76.8118 171.265 71.1507 167.17 66.0138L161.271 65.3671L162.847 60.771C158.061 55.1471 153.394 50.2542 149.077 46.0743L143.169 45.7425L144.201 41.5135C133.675 31.9846 126.231 27.3498 126.231 27.3498L112.857 31.4209C112.857 31.4209 106.46 27.9291 101.228 24.4419C101.228 24.4419 97.7379 12.8115 96.5798 6.41321C95.4123 0.0197136 91.922 2.92771 90.7639 4.66811C89.5964 6.41321 77.5314 19.7888 77.5314 19.7888C77.5314 19.7888 70.3143 18.7995 65.1774 19.7888C57.6164 21.2436 54.1261 26.333 45.4037 34.6207C39.0379 40.6609 35.222 45.9608 33.0468 51.6279C30.8655 57.2978 33.48 57.2978 32.6105 62.5301C31.7349 67.7671 8.18235 107.019 5.57075 111.817C2.95005 116.614 -3.36983 131.285 9.05787 140.603C12.5418 143.221 15.1626 144.533 17.341 145.399C17.341 145.399 20.8313 144.533 22.14 142.788C22.3704 142.474 22.4932 142.281 22.5516 142.176C22.5916 142.056 22.6131 142.053 22.5516 142.176C22.4164 142.517 22.1093 143.792 23.4489 145.399C25.6302 148.017 28.4324 147.826 29.9931 148.017C32.3158 148.312 36.5309 146.275 40.0244 141.039C43.5115 135.807 45.693 134.059 48.3105 131.008C50.9251 127.954 65.362 121.199 70.9938 111.816C72.2996 109.64 75.3534 110.509 77.5317 112.254C79.713 113.999 91.9225 114.439 97.158 105.712C97.158 105.712 99.6312 128.654 89.3049 144.531C72.2993 170.695 43.5106 177.238 34.7864 201.664H213.61C213.61 193.221 213.165 185.116 212.36 177.325L206.412 174.185L211.446 169.309L211.36 169.314Z" fill="black" stroke="#20201E" stroke-width="2.684"/>
<path d="M119.243 37.2722C119.243 37.2722 195.419 94.2637 195.419 197.194" stroke="white" stroke-width="2.684"/>
<path d="M22.5321 141.534C22.5951 141.439 22.5636 141.439 22.5321 141.534V141.534Z" stroke="#20201E" stroke-width="2.684"/>
<path d="M103.544 76.8185C104.994 93.0973 97.4362 104.729 97.1473 105.746C97.1473 105.746 115.468 96.2987 117.213 83.7927" stroke="white" stroke-width="2.684"/>
<path d="M97.126 105.731C97.126 105.731 109.338 111.695 118.353 107.914" stroke="white" stroke-width="2.684"/>
<path d="M22.1233 142.163C22.1233 142.163 30.265 131.692 32.5938 126.896" stroke="#20201E" stroke-width="2.684"/>
<path d="M72.2717 45.5464C72.2717 45.5464 58.861 45.6109 54.3875 52.957C48.2828 62.9912 55.2631 64.2986 55.2631 64.2986C55.2631 64.2986 62.2373 66.4815 67.0364 59.9391C72.1456 52.9724 67.9058 48.5975 67.9058 48.5975L72.2474 45.5458L72.2717 45.5464Z" stroke="white" stroke-width="2.684"/>
<path d="M7.30518 119.479C12.1012 118.172 15.1519 118.607 17.3302 119.919C17.3302 119.919 15.1519 113.375 19.0753 107.703C23.0047 102.033 29.549 101.6 35.2113 90.6976" stroke="white" stroke-width="2.684"/>
<path d="M134.627 51.6498L142.933 46.4273" stroke="white" stroke-width="2.684"/>
<path d="M151.648 70.4005L159.953 66.4994" stroke="white" stroke-width="2.684"/>
<path d="M166.906 92.1715L176.502 88.2389" stroke="white" stroke-width="2.684"/>
<path d="M179.145 117.089L189.149 113.596" stroke="white" stroke-width="2.684"/>
<path d="M188.709 146.316L199.185 143.264" stroke="white" stroke-width="2.684"/>
<path d="M194.403 175.952L205.289 174.662" stroke="white" stroke-width="2.684"/>
</svg>
