<svg width="163" height="212" viewBox="0 0 163 212" fill="none" xmlns="http://www.w3.org/2000/svg">
<path d="M155.935 188.512H152.886V170.194L138.207 153.757H138.058V56.7945H138.207L157.305 38.5277H157.426V7.27731C157.426 4.54601 155.307 2.3338 152.697 2.3338H126.276V19.3192L111.447 24.2318L97.7826 19.3192V2.3338H65.2174V19.3192L51.5502 24.2318L36.723 19.3192V2.3338H10.3068C7.69526 2.3338 5.57855 4.54591 5.57855 7.27731V38.5277H5.63239L24.7977 56.7945V153.757L10.118 170.194V188.512H7.06555C4.33425 188.512 2.12061 190.727 2.12061 193.461V205.084C2.12061 207.812 4.33415 210.027 7.06555 210.027H155.929C158.664 210.027 160.876 207.812 160.876 205.084V193.461C160.876 190.755 158.661 188.521 155.927 188.521L155.935 188.512Z" fill="black" stroke="black" stroke-width="2.684" stroke-linecap="square"/>
<path d="M14.9556 188.512H146.962" stroke="white" stroke-width="2.684" stroke-linecap="round"/>
<path d="M15.5375 170.201H146.383" stroke="white" stroke-width="2.684" stroke-linecap="round"/>
<path d="M132.427 153.779H28.3326" stroke="white" stroke-width="2.684" stroke-linecap="round"/>
<path d="M28.9116 56.8161H133.009" stroke="white" stroke-width="2.684" stroke-linecap="round"/>
<path d="M12.0485 38.5374H153.358" stroke="white" stroke-width="2.684" stroke-linecap="round"/>
</svg>
