<svg width="235" height="219" viewBox="0 0 235 219" fill="none" xmlns="http://www.w3.org/2000/svg">
<path d="M234.22 208.777C232.256 207.704 214.559 190.315 198.147 190.315C189.614 190.315 182.922 192.889 177.023 195.163C171.038 197.467 165.388 199.642 157.21 199.642C147.678 199.642 139.765 196.733 132.78 194.168C127.149 192.103 122.285 190.315 117.308 190.315C112.334 190.315 107.47 192.103 101.838 194.168C94.8564 196.733 86.9418 199.642 77.4101 199.642C69.23 199.642 63.5799 197.467 57.5966 195.163C51.6961 192.889 45.006 190.315 36.4741 190.315C20.0584 190.315 2.36105 207.704 0.397949 208.777C0.397949 208.777 7.54275 204.306 14.1913 204.306C20.8415 204.306 26.6004 208.97 36.4751 208.97C41.54 208.97 45.6678 210.559 50.8969 212.571C57.521 215.124 65.7624 218.295 77.4111 218.295C90.2629 218.295 100.672 214.473 108.273 211.683C111.732 210.411 115.653 208.97 117.309 208.97C118.971 208.97 122.888 210.411 126.348 211.683C133.95 214.473 144.358 218.295 157.211 218.295C168.857 218.295 177.102 215.124 183.725 212.571C188.951 210.559 193.081 208.97 198.149 208.97C208.022 208.97 215.504 204.306 220.429 204.306C225.354 204.306 234.304 208.774 234.304 208.774L234.22 208.777Z" fill="#20201E"/>
<path d="M180.013 102.093C180.013 72.6628 154.902 26.011 135.682 19.7031C135.014 19.4834 134.325 19.2991 133.619 19.1516C136.97 17.9088 139.367 14.6936 139.367 10.9085C139.367 6.05091 135.427 2.11551 130.574 2.11551C125.72 2.11551 121.776 6.05131 121.776 10.9085C121.776 14.2836 123.684 17.207 126.473 18.6847C122.532 18.9397 118.276 19.9643 113.89 21.7309C111.092 20.4589 108.309 19.548 105.567 19.0487C108.774 17.7384 111.039 14.586 111.039 10.9085C111.039 6.05091 107.103 2.11551 102.246 2.11551C97.3886 2.11551 93.4529 6.05131 93.4529 10.9085C93.4529 14.3387 95.4223 17.3067 98.2887 18.7551C96.8001 18.9195 95.3346 19.2282 93.9015 19.7029C74.727 26.0121 50.174 70.937 50.174 102.093C50.174 126.939 60.2405 148.343 71.8602 163.838C73.5899 168.431 76.2197 168.566 76.7883 169.135C76.7898 169.135 76.7914 169.131 76.7929 169.131C76.7821 169.208 74.4902 184.106 74.2659 187.47C73.9203 192.656 73.398 198.783 73.398 198.783C86.0761 204.359 99.9677 207.597 115.059 207.597C130.153 207.597 143.36 204.046 156.033 198.473C155.582 194.328 155.064 190.186 154.027 183.965C153.486 180.711 151.624 169.126 151.624 169.126C152.19 168.563 155.609 164.274 155.609 164.274C167.942 148.701 179.991 127.937 179.991 102.107L180.013 102.093Z" fill="white" stroke="#20201E" stroke-width="4.1522"/>
<path d="M77.1047 169.136C87.3864 164.706 99.2088 160.822 114.527 160.822C129.842 160.822 141.659 164.703 151.941 169.127C152.505 168.564 153.849 167.123 156.625 163.237C147.974 153.875 135.385 148.732 114.791 148.732C92.8176 148.732 80.8229 154.465 72.1742 163.839C73.936 168.401 76.5787 168.558 77.145 169.124L77.1047 169.136Z" fill="black" stroke="black" stroke-width="1.6765"/>
<path d="M155.694 198.458C143.014 192.887 130.047 190.125 114.955 190.125C99.8633 190.125 85.7358 193.198 73.0589 198.768C85.7354 204.345 99.627 207.583 114.719 207.583C129.821 207.583 143.034 204.028 155.713 198.459L155.694 198.458Z" fill="white" stroke="black" stroke-width="3.1886" stroke-linejoin="bevel"/>
<path d="M155.348 164.26C163.333 150.913 173.839 125.742 160.711 82.9049C149.696 46.964 117.244 11.8945 93.6393 19.6874C72.7027 26.6003 49.9118 76.1062 49.9118 102.077C49.9118 126.923 59.9752 148.328 71.5934 163.822L155.374 164.231L155.348 164.26Z" fill="black" stroke="black" stroke-width="1.6765"/>
<path d="M101.99 19.6816C106.847 19.6816 110.784 15.7444 110.784 10.8877C110.784 6.03097 106.847 2.09381 101.99 2.09381C97.1336 2.09381 93.1964 6.03097 93.1964 10.8877C93.1964 15.7444 97.1336 19.6816 101.99 19.6816Z" fill="black" stroke="black" stroke-width="1.6765"/>
<path d="M151.352 169.105L151.349 169.095C141.068 164.674 129.241 160.969 113.936 160.969C98.6189 160.969 86.8073 164.677 76.5227 169.105C76.5227 169.105 74.2184 184.076 73.9942 187.449C73.6486 192.635 73.1278 198.762 73.1278 198.762C85.8027 193.192 99.9341 190.119 115.021 190.119C129.824 190.119 143.264 193.081 155.76 198.451C155.31 194.307 154.791 190.165 153.755 183.944C153.189 180.672 151.333 169.063 151.333 169.063L151.352 169.105Z" fill="black" stroke="black" stroke-width="1.6765" stroke-linejoin="bevel"/>
<path d="M150.975 189.177C139.578 185.637 127.41 183.692 114.855 183.692C102.086 183.692 89.0362 185.772 77.3312 189.447" stroke="white" stroke-width="1.6765" stroke-linecap="round" stroke-linejoin="bevel"/>
<path d="M79.7789 167.752C89.3018 163.917 100.221 160.799 113.945 160.799C127.743 160.799 138.701 163.951 148.26 167.81" stroke="white" stroke-width="1.6765" stroke-linecap="round"/>
<path d="M154.467 160.988C142.379 151.319 132.706 148.729 114.804 148.729C99.8114 148.729 84.3405 152.698 76.9286 159.488" stroke="white" stroke-width="1.6765" stroke-linecap="round"/>
<path d="M135.811 85.7332L131.721 89.8546H111.02V71.1668L115.141 67.0454L106.835 58.7398L98.5296 67.0454L102.682 71.1982V89.8546H81.8553L77.734 85.7332L69.4283 94.0389L77.734 102.345L81.9183 98.1917H102.682V120.969L98.5296 125.122L106.835 133.428L115.141 125.122L111.02 121.001V98.1917H131.658L135.811 102.345L144.116 94.0389L135.811 85.7332Z" fill="white" stroke="black" stroke-width="1.6765"/>
</svg>
