<svg width="216" height="204" viewBox="0 0 216 204" fill="none" xmlns="http://www.w3.org/2000/svg">
<path d="M160.706 25.7733C160.706 25.7733 157.216 7.01821 157.216 4.39871C157.216 1.78411 154.601 1.34791 151.983 4.83801C149.366 8.32821 137.591 25.3367 137.591 25.3367L160.683 25.7457L160.706 25.7733Z" fill="black" stroke="#20201E" stroke-width="2.684"/>
<path d="M4.22876 169.644C5.41316 161.186 7.02915 153.124 8.99695 145.455L15.3184 142.933L11.097 137.888C13.5026 129.777 16.2968 122.145 19.3661 114.97L25.3449 113.277L22.391 108.221C25.6032 101.395 29.055 95.0286 32.6371 89.1007L38.212 87.9808L36.2136 83.3768C40.2293 77.18 44.3554 71.5204 48.4507 66.3835L54.3511 65.7368L52.7751 61.1407C57.5619 55.5168 62.2288 50.6239 66.5468 46.4441L72.452 46.1123L71.4211 41.8833C81.9501 32.356 89.3898 27.7196 89.3898 27.7196L102.765 31.7891C102.765 31.7891 109.16 28.2988 114.396 24.8117C114.396 24.8117 117.883 13.1813 119.046 6.783C120.21 0.387896 123.697 3.2959 124.86 5.0394C126.026 6.783 138.091 20.1601 138.091 20.1601C138.091 20.1601 145.308 19.1693 150.447 20.1601C158.004 21.6149 161.496 26.7027 170.22 34.9904C176.582 41.0321 180.398 46.332 182.577 51.9988C184.757 57.6687 182.144 57.6687 183.012 62.9009C183.888 68.1363 207.439 107.387 210.053 112.184C212.676 116.98 218.991 131.657 206.566 140.969C203.079 143.59 200.457 144.895 198.28 145.768C198.28 145.768 194.79 144.896 193.484 143.154C193.251 142.84 193.131 142.65 193.074 142.545C193.031 142.422 193.009 142.422 193.074 142.545C193.208 142.886 193.512 144.161 192.174 145.768C189.994 148.389 187.192 148.192 185.629 148.389C183.305 148.678 179.09 146.641 175.6 141.408C172.108 136.17 169.928 134.428 167.312 131.374C164.697 128.323 150.262 121.567 144.63 112.184C143.323 110.009 140.271 110.879 138.091 112.622C135.911 114.369 123.697 114.805 118.465 106.08C118.465 106.08 115.991 129.021 126.316 144.896C143.323 171.063 172.107 177.603 180.835 202.032H1.91016C1.91016 193.589 2.35405 185.491 3.16055 177.696L9.10544 174.553L4.12836 169.645L4.22876 169.644Z" fill="black" stroke="#20201E" stroke-width="2.684"/>
<path d="M96.3683 37.6026C96.3683 37.6026 20.192 94.5972 20.192 197.521" stroke="white" stroke-width="2.684"/>
<path d="M193.079 141.864C193.016 141.77 193.016 141.77 193.079 141.864V141.864Z" stroke="#20201E" stroke-width="2.684"/>
<path d="M112.067 77.1489C110.616 93.4293 118.177 105.058 118.466 106.077C118.466 106.077 100.145 96.6307 98.4001 84.1231" stroke="white" stroke-width="2.684"/>
<path d="M118.454 106.061C118.454 106.061 106.241 112.025 97.2284 108.244" stroke="white" stroke-width="2.684"/>
<path d="M193.488 142.493C193.488 142.493 185.345 132.02 183.016 127.224" stroke="#20201E" stroke-width="2.684"/>
<path d="M143.308 45.8768C143.308 45.8768 156.719 45.9444 161.191 53.289C167.297 63.3232 160.32 64.6291 160.32 64.6291C160.32 64.6291 153.341 66.8135 148.543 60.2696C143.436 53.3045 147.671 48.9295 147.671 48.9295L143.329 45.8778L143.308 45.8768Z" stroke="white" stroke-width="2.684"/>
<path d="M208.306 119.81C203.507 118.504 200.455 118.934 198.278 120.249C198.278 120.249 200.455 113.704 196.534 108.034C192.605 102.364 186.062 101.929 180.395 91.0253" stroke="white" stroke-width="2.684"/>
<path d="M80.9525 52.0117L72.6782 46.7577" stroke="white" stroke-width="2.684"/>
<path d="M63.9448 70.7624L55.658 66.8298" stroke="white" stroke-width="2.684"/>
<path d="M48.683 92.5018L39.0874 88.5692" stroke="white" stroke-width="2.684"/>
<path d="M36.4636 117.419L26.4401 113.927" stroke="white" stroke-width="2.684"/>
<path d="M26.8743 146.646L16.4041 143.594" stroke="white" stroke-width="2.684"/>
<path d="M21.2019 176.282L10.3007 174.992" stroke="white" stroke-width="2.684"/>
</svg>
