<svg width="216" height="204" viewBox="0 0 216 204" fill="none" xmlns="http://www.w3.org/2000/svg">
<path d="M4.37976 169.539C5.56266 161.08 7.18174 153.017 9.14954 145.352L15.4695 142.829L11.2512 137.781C13.6538 129.673 16.4482 122.038 19.5187 114.861L25.4991 113.172L22.5421 108.115C25.7543 101.289 29.2061 94.9233 32.787 88.9951L38.3633 87.8752L36.3633 83.2712C40.3805 77.0743 44.5066 71.4148 48.6003 66.2779L54.5023 65.6312L52.9262 61.0351C57.7161 55.4096 62.3846 50.5168 66.701 46.3369L72.6048 46.0051L71.5724 41.7761C82.1014 32.2488 89.541 27.6124 89.541 27.6124L102.917 31.6847C102.917 31.6847 109.312 28.1944 114.547 24.7057C114.547 24.7057 118.034 13.0752 119.195 6.6786C120.361 0.281997 123.849 3.1883 125.011 4.9335C126.177 6.6786 138.243 20.0511 138.243 20.0511C138.243 20.0511 145.461 19.0649 150.601 20.0511C158.158 21.5089 161.648 26.5953 170.375 34.8814C176.733 40.9263 180.549 46.2246 182.729 51.8914C184.909 57.5613 182.294 57.5613 183.164 62.7951C184.041 68.0289 207.591 107.281 210.203 112.079C212.826 116.876 219.144 131.548 206.718 140.863C203.231 143.481 200.61 144.793 198.433 145.661C198.433 145.661 194.941 144.793 193.636 143.048C193.402 142.736 193.282 142.546 193.226 142.44C193.184 142.323 193.161 142.315 193.226 142.44C193.359 142.779 193.663 144.054 192.325 145.661C190.144 148.28 187.344 148.085 185.784 148.28C183.457 148.572 179.242 146.538 175.751 141.301C172.261 136.067 170.082 134.321 167.462 131.268C164.849 128.216 150.413 121.461 144.782 112.078C143.475 109.902 140.422 110.769 138.242 112.516C136.063 114.261 123.848 114.699 118.618 105.972C118.618 105.972 116.143 128.916 126.468 144.792C143.475 170.96 172.262 177.498 180.989 201.928H2.09314C2.09314 193.486 2.53866 185.382 3.34366 177.585L9.29004 174.449L4.30975 169.604L4.37976 169.539Z" fill="white" stroke="#20201E" stroke-width="3.4947"/>
<path d="M160.863 25.6805C160.863 25.6805 157.373 6.92539 157.373 4.30909C157.373 1.69279 154.76 1.25519 152.141 4.74539C149.523 8.23409 137.748 25.2441 137.748 25.2441L160.84 25.6783L160.863 25.6805Z" fill="white" stroke="#20201E" stroke-width="3.4947"/>
<path d="M95.5257 22.5098C95.5257 22.5098 19.3525 79.5044 19.3525 182.432" stroke="#20201E" stroke-width="2.684"/>
<path d="M192.236 127.451C192.173 127.325 192.173 127.325 192.236 127.451V127.451Z" stroke="#20201E" stroke-width="2.684"/>
<path d="M111.225 62.0436C109.771 78.3224 117.332 89.9529 117.623 90.9697C117.623 90.9697 99.3009 81.5223 97.5589 69.0163" stroke="#20201E" stroke-width="2.684"/>
<path d="M117.611 90.9876C117.611 90.9876 105.396 96.9526 96.3842 93.1721" stroke="#20201E" stroke-width="2.684"/>
<path d="M192.645 128.049C192.645 128.049 184.502 117.58 182.173 112.782" stroke="#20201E" stroke-width="2.684"/>
<path d="M142.465 30.7998C142.465 30.7998 155.876 30.8628 160.35 38.212C166.453 48.2449 159.477 49.5521 159.477 49.5521C159.477 49.5521 152.5 51.735 147.701 45.1926C142.593 38.2259 146.828 33.8525 146.828 33.8525L142.487 30.7976L142.465 30.7998Z" stroke="#20201E" stroke-width="2.684"/>
<path d="M207.464 105.365C202.661 104.058 199.611 104.496 197.434 105.803C197.434 105.803 199.611 99.2605 195.689 93.589C191.759 87.9191 185.22 87.4812 179.55 76.579" stroke="#20201E" stroke-width="2.684"/>
<path d="M80.1097 36.9032L71.8355 31.6712" stroke="#20201E" stroke-width="2.684"/>
<path d="M63.0988 55.657L54.809 51.7338" stroke="#20201E" stroke-width="2.684"/>
<path d="M47.8372 77.428L38.2416 73.4954" stroke="#20201E" stroke-width="2.684"/>
<path d="M35.6209 102.314L25.5912 98.8214" stroke="#20201E" stroke-width="2.684"/>
<path d="M26.0285 131.541L15.5583 128.489" stroke="#20201E" stroke-width="2.684"/>
<path d="M20.3561 161.208L9.45483 159.887" stroke="#20201E" stroke-width="2.684"/>
</svg>
