<svg width="163" height="212" viewBox="0 0 163 212" fill="none" xmlns="http://www.w3.org/2000/svg">
<path d="M155.812 209.782C158.546 209.782 160.757 207.569 160.757 204.835V193.212C160.757 190.478 158.546 188.267 155.812 188.267H6.94501C4.21221 188.267 2 190.478 2 193.212V204.835C2 207.569 4.21201 209.782 6.94501 209.782H155.812Z" fill="white" stroke="#20201E" stroke-width="3.4947"/>
<path d="M152.763 169.952H9.9967V188.271H152.763V169.952Z" fill="white" stroke="#20201E" stroke-width="3.4947"/>
<path d="M152.763 169.952L138.084 153.498H24.6763L9.9967 169.952H152.763Z" fill="white" stroke="#20201E" stroke-width="3.4947" stroke-linejoin="bevel"/>
<path d="M157.237 38.2222L138.084 56.545H24.6764L5.46021 38.2222H157.237Z" fill="white" stroke="#20201E" stroke-width="3.4947" stroke-linejoin="round"/>
<path d="M137.932 56.545H24.6764V153.508H137.932V56.545Z" fill="white" stroke="#20201E" stroke-width="3.4947"/>
<path d="M152.571 2.07989H126.155V19.0669L111.331 23.9767L97.6622 19.0669V2.07989H65.1002V19.0669L51.4314 23.9767L36.6058 19.0669V2.07989H10.1896C7.57814 2.07989 5.4613 4.29198 5.4613 7.02178V38.2754H157.304V7.02178C157.301 4.29098 155.184 2.07928 152.573 2.07928L152.571 2.07989Z" fill="white" stroke="#20201E" stroke-width="3.4947" stroke-linecap="square"/>
</svg>
