<svg width="205" height="198" viewBox="0 0 205 198" fill="none" xmlns="http://www.w3.org/2000/svg">
<path d="M127.168 2.4588H76.5187V55.3918C76.5187 63.1847 87.9169 69.5092 101.97 69.5092C116.032 69.5092 127.068 63.1849 127.068 55.3918C127.068 54.7028 127.162 2.4588 127.162 2.4588H127.168Z" fill="white" stroke="#20201E" stroke-width="3.809"/>
<path d="M127.164 2.4588H76.5155V47.8443H127.164V2.4588Z" fill="white" stroke="#20201E" stroke-width="3.809"/>
<path d="M76.5155 2.4588L127.168 47.8411" stroke="#20201E" stroke-width="3.809"/>
<path d="M127.168 2.4588L76.5155 47.8411" stroke="#20201E" stroke-width="3.809"/>
<path d="M167.249 180.197C147.543 170.473 126.123 165.361 102.663 165.361C79.2023 165.361 56.7676 170.813 37.0573 180.535C56.7679 190.259 78.8216 195.858 102.279 195.858C125.749 195.89 147.551 189.944 167.246 180.222L167.249 180.197Z" fill="white" stroke="#20201E" stroke-width="3.809" stroke-linejoin="round"/>
<path d="M177.096 146.849C178.227 145.859 179.348 144.847 180.448 143.779C204.265 120.606 209.721 87.5807 192.633 70.0161C175.538 52.4499 142.38 57.0017 118.564 80.1733C111.449 87.0938 105.989 94.8961 102.263 102.901C98.5388 94.8961 93.0763 87.0938 85.9636 80.1733C62.1483 57.0017 28.9816 52.45 11.8952 70.0161C-5.19777 87.5807 0.257233 120.608 24.0772 143.779C25.1802 144.85 26.3062 145.867 27.4445 146.856C48.0092 139.134 74.0035 134.519 102.281 134.519C130.533 134.519 156.519 139.144 177.063 146.852L177.096 146.849Z" fill="white" stroke="#20201E" stroke-width="3.809" stroke-linejoin="bevel"/>
<path d="M102.282 102.929C106.009 94.9227 111.468 87.122 118.584 80.2047C124.381 74.5578 130.741 70.0258 137.288 66.6419C126.431 63.588 114.639 61.9121 102.301 61.9121C89.956 61.9121 78.1518 63.5927 67.291 66.6514C73.8289 70.0341 80.1856 74.5626 85.9832 80.2051C93.0934 87.1265 98.5361 94.9288 102.28 102.92L102.282 102.929Z" fill="white" stroke="#20201E" stroke-width="3.809"/>
<path d="M176.813 146.849L176.801 146.832C156.247 139.118 130.267 134.512 102.015 134.512C73.7385 134.512 47.7448 139.126 27.182 146.849C27.182 146.849 37.0456 154.574 38.473 160.281C39.8986 165.983 40.51 174.162 37.0828 180.52C56.7906 170.798 79.2279 165.346 102.688 165.346C125.7 165.346 147.853 170.807 167.274 180.182C164.141 173.904 164.134 165.826 165.523 160.281C166.939 154.618 176.818 146.879 176.818 146.879L176.813 146.849Z" fill="white" stroke="#20201E" stroke-width="3.809" stroke-linejoin="bevel"/>
<path d="M37.0635 180.543C56.7712 170.821 79.2085 165.369 102.669 165.369C125.681 165.369 147.831 170.83 167.255 180.205C165.922 177.523 164.521 170.673 164.745 166.853C145.223 159.178 124.23 154.983 102.358 154.983C80.2341 154.983 59.0175 159.266 39.3103 167.101C39.562 174.18 38.5552 177.735 37.0766 180.504L37.0635 180.543Z" fill="white" stroke="#20201E" stroke-width="3.809" stroke-linejoin="bevel"/>
<path d="M92.655 145.024L102.408 149.9L112.129 145.024L102.408 140.147L92.655 145.024Z" fill="black"/>
<path d="M52.794 151.379L63.1761 154.619L72.0167 148.233L61.6345 144.992L52.794 151.379Z" fill="black"/>
<path d="M151.99 151.379L141.608 154.619L132.768 148.233L143.15 144.992L151.99 151.379Z" fill="black"/>
<path d="M102.282 75.8703C112.185 75.8703 120.212 69.9428 120.212 62.6309C120.212 55.319 112.185 49.3915 102.282 49.3915C92.3794 49.3915 84.3518 55.319 84.3518 62.6309C84.3518 69.9428 92.3794 75.8703 102.282 75.8703Z" fill="white" stroke="#20201E" stroke-width="3.809"/>
</svg>
