<svg width="216" height="204" viewBox="0 0 216 204" fill="none" xmlns="http://www.w3.org/2000/svg">
<path d="M55.4289 25.6805C55.4289 25.6805 58.9192 6.92539 58.9192 4.30909C58.9192 1.69279 61.5338 1.25519 64.1514 4.74539C66.7691 8.23409 78.5454 25.2441 78.5454 25.2441L55.4216 25.6783L55.4289 25.6805Z" fill="white" stroke="#20201E" stroke-width="3.4947"/>
<path d="M211.916 169.539C210.733 161.08 209.117 153.017 207.147 145.352L200.828 142.829L205.046 137.781C202.643 129.673 199.85 122.038 196.778 114.861L190.796 113.172L193.755 108.115C190.541 101.289 187.091 94.9233 183.509 88.9951L177.932 87.8752L179.936 83.2712C175.917 77.0743 171.791 71.4148 167.695 66.2779L161.793 65.6312L163.369 61.0351C158.579 55.4096 153.913 50.5168 149.596 46.3369L143.694 46.0051L144.723 41.7761C134.194 32.2488 126.753 27.6124 126.753 27.6124L113.379 31.6847C113.379 31.6847 106.985 28.1944 101.75 24.7057C101.75 24.7057 98.2599 13.0752 97.1018 6.6786C95.9343 0.281997 92.4472 3.1883 91.2828 4.9335C90.1214 6.6786 78.0531 20.0511 78.0531 20.0511C78.0531 20.0511 70.8359 19.0649 65.6931 20.0511C58.138 21.5089 54.648 26.5953 45.9192 34.8814C39.5625 40.9263 35.7468 46.2246 33.5683 51.8914C31.387 57.5613 34.0015 57.5613 33.1351 62.7951C32.2564 68.0289 8.70376 107.281 6.09216 112.079C3.47146 116.876 -2.84522 131.548 9.57928 140.863C13.0632 143.481 15.6871 144.793 17.8654 145.661C17.8654 145.661 21.3525 144.793 22.6614 143.048C22.8949 142.736 23.0117 142.546 23.07 142.44C23.113 142.323 23.1345 142.315 23.07 142.44C22.9379 142.779 22.6336 144.054 23.9701 145.661C26.1516 148.28 28.9537 148.085 30.5112 148.28C32.837 148.572 37.0523 146.538 40.5453 141.301C44.0356 136.067 46.2168 134.321 48.8346 131.268C51.4461 128.216 65.8833 121.461 71.5148 112.078C72.8205 109.902 75.8743 110.769 78.0525 112.516C80.2339 114.261 92.4466 114.699 97.6789 105.972C97.6789 105.972 100.152 128.916 89.8291 144.792C72.8207 170.96 44.0346 177.498 35.3105 201.928H214.131C214.131 193.486 213.686 185.382 212.881 177.585L206.936 174.449L212.064 169.604L211.916 169.539Z" fill="white" stroke="#20201E" stroke-width="3.4947"/>
<path d="M119.767 37.5098C119.767 37.5098 195.943 94.5044 195.943 197.432" stroke="#20201E" stroke-width="2.684"/>
<path d="M23.0557 142.451C23.1186 142.325 23.1186 142.325 23.0557 142.451V142.451Z" stroke="#20201E" stroke-width="2.684"/>
<path d="M104.068 77.0436C105.521 93.3224 97.9598 104.953 97.6709 105.97C97.6709 105.97 115.991 96.5223 117.734 84.0163" stroke="#20201E" stroke-width="2.684"/>
<path d="M97.681 105.988C97.681 105.988 109.894 111.953 118.908 108.172" stroke="#20201E" stroke-width="2.684"/>
<path d="M22.6467 143.049C22.6467 143.049 30.7884 132.58 33.1203 127.782" stroke="#20201E" stroke-width="2.684"/>
<path d="M72.8268 45.7998C72.8268 45.7998 59.416 45.8628 54.9457 53.212C48.841 63.2449 55.8151 64.5521 55.8151 64.5521C55.8151 64.5521 62.7925 66.735 67.5915 60.1926C72.7008 53.2259 68.4641 48.8525 68.4641 48.8525L72.8057 45.7976L72.8268 45.7998Z" stroke="#20201E" stroke-width="2.684"/>
<path d="M7.82849 120.365C12.6276 119.058 15.6815 119.496 17.8599 120.803C17.8599 120.803 15.6816 114.261 19.6019 108.589C23.5313 102.919 30.0696 102.481 35.7411 91.579" stroke="#20201E" stroke-width="2.684"/>
<path d="M135.182 51.9032L143.457 46.6712" stroke="#20201E" stroke-width="2.684"/>
<path d="M152.203 70.657L160.477 66.7338" stroke="#20201E" stroke-width="2.684"/>
<path d="M167.461 92.428L177.057 88.4954" stroke="#20201E" stroke-width="2.684"/>
<path d="M179.668 117.314L189.704 113.821" stroke="#20201E" stroke-width="2.684"/>
<path d="M189.264 146.541L199.74 143.489" stroke="#20201E" stroke-width="2.684"/>
<path d="M194.927 176.208L205.844 174.887" stroke="#20201E" stroke-width="2.684"/>
</svg>
