<svg width="133" height="199" viewBox="0 0 133 199" fill="none" xmlns="http://www.w3.org/2000/svg">
<path d="M91.6583 168.954C79.8605 145.531 81.0526 103.812 82.0389 87.6501C100.697 86.3705 114.116 82.8356 114.116 78.6711C114.116 74.5834 101.2 71.0994 83.0825 69.7645C94.6529 63.8027 102.57 51.7453 102.57 37.8317C102.57 17.9997 86.4989 1.92218 66.6641 1.92218C46.8293 1.92218 30.7578 18 30.7578 37.8317C30.7578 51.745 38.672 63.8024 50.2456 69.7645C32.131 71.0994 19.2088 74.5834 19.2088 78.6711C19.2088 82.8356 32.6351 86.3705 51.2895 87.6501C52.2788 103.812 53.4708 145.532 41.6731 168.954C18.5505 173.603 2.32495 184.513 2.32495 197.225H131C131 184.514 114.798 173.597 91.674 168.941L91.6583 168.954Z" fill="white" stroke="black" stroke-width="3.4947" stroke-linejoin="round"/>
</svg>
