<svg width="225" height="202" viewBox="0 0 225 202" fill="none" xmlns="http://www.w3.org/2000/svg">
<path d="M176.898 185.182C157.812 176.258 136.895 171.573 113.803 171.573C90.7107 171.573 68.3263 176.688 48.6128 185.613C67.6982 194.529 89.3484 199.549 112.444 199.549C135.567 199.581 157.213 194.107 176.907 185.203L176.898 185.182Z" fill="white" stroke="#20201E" stroke-width="3.4947" stroke-linejoin="bevel"/>
<path d="M175.482 145.132L175.47 145.11C158.314 138.038 138.352 133.735 112.435 133.735C86.4856 133.735 66.4229 138.041 48.7639 145.132C48.7639 145.132 50.6903 161.503 50.7701 166.916C50.8653 173.013 49.1602 185.507 49.1602 185.507C68.8723 176.582 90.72 171.565 113.812 171.565C136.462 171.565 159.481 176.213 176.907 185.174C174.044 179.448 175.491 145.156 175.491 145.156L175.482 145.132Z" fill="white" stroke="#20201E" stroke-width="3.4947" stroke-linejoin="bevel"/>
<path d="M49.2295 185.402C67.7835 176.578 90.7201 171.564 113.812 171.564C136.462 171.564 155.476 174.758 176.907 185.173C176.044 182.766 175.466 175.288 175.279 172.575C156.31 165.528 135.39 161.528 113.858 161.528C92.0871 161.528 70.1837 165.746 50.5332 172.937C50.1242 175.737 49.2433 185.364 49.2433 185.364L49.2295 185.402Z" fill="white" stroke="#20201E" stroke-width="3.4947" stroke-linejoin="bevel"/>
<path d="M218.049 40.7602C213.462 38.0811 207.569 39.6296 204.89 44.2228C202.588 48.1586 203.409 53.0404 206.576 56.0468C193.47 71.9339 169.547 100.92 163.774 107.951C162.078 107.194 160.32 106.475 158.492 105.803C159.012 100.411 162.8 59.2664 164.809 37.3822C169.175 37.482 173.203 34.591 174.343 30.1836C175.673 25.036 172.585 19.7851 167.436 18.4534C162.296 17.1215 157.045 20.2123 155.712 25.3569C154.569 29.7658 156.686 34.2484 160.554 36.2776C151.076 57.7902 132.685 99.5392 132.639 99.7122C132.63 99.7537 132.636 99.7967 132.627 99.8397C130.955 99.6415 129.237 99.4649 127.486 99.3205C127.139 97.0055 119.253 48.6087 115.142 23.4022C119.867 22.2962 123.385 18.0671 123.385 13.0037C123.385 7.10162 118.601 2.31042 112.696 2.31042C106.791 2.31042 102.004 7.10192 102.004 13.0037C102.004 18.067 105.531 22.296 110.254 23.4022C106.161 48.4957 98.3239 96.5645 97.9124 99.2796C96.0843 99.4271 94.2962 99.6007 92.5511 99.8065C92.5388 99.7451 92.5419 99.6928 92.5235 99.6375C92.4805 99.4639 74.0861 57.7096 64.6142 36.1997C68.4761 34.1719 70.5899 29.6911 69.4501 25.279C68.1197 20.1345 62.8659 17.0435 57.723 18.3755C52.5801 19.7076 49.4891 24.9581 50.8224 30.101C51.9653 34.5143 55.987 37.4024 60.3528 37.3011C62.3621 59.1608 66.1381 100.22 66.6696 105.697C64.8753 106.352 63.1488 107.051 61.4836 107.786C55.477 100.48 31.8261 71.8139 18.8132 56.0489C21.9869 53.0426 22.8043 48.1607 20.5091 44.2249C17.8331 39.6316 11.9372 38.0831 7.3471 40.7623C2.7601 43.4398 1.20841 49.3326 3.88451 53.9258C6.18571 57.8584 10.8434 59.5497 15.0188 58.2655C22.8441 78.6459 48.1031 144.239 49.0689 145.145C66.48 138.059 86.5011 133.748 112.444 133.748C138.374 133.748 158.389 138.054 175.803 145.139C176.762 144.231 202.354 79.1776 210.382 58.2655C214.56 59.5497 219.215 57.8584 221.513 53.9258C224.093 49.3357 222.551 43.443 217.958 40.7657L218.049 40.7602Z" fill="white" stroke="#20201E" stroke-width="3.4947"/>
<path d="M103.845 148.246L112.78 152.714L121.747 148.246L112.78 143.779L103.845 148.246Z" fill="black"/>
<path d="M67.288 154.035L76.8206 156.993L84.9374 151.141L75.4048 148.183L67.288 154.035Z" fill="black"/>
<path d="M158.304 154.067L148.772 157.055L140.655 151.204L150.187 148.215L158.304 154.067Z" fill="black"/>
</svg>
