<svg width="239" height="222" viewBox="0 0 239 222" fill="none" xmlns="http://www.w3.org/2000/svg">
<path d="M235.949 209.654C233.984 208.583 216.287 191.193 199.872 191.193C191.34 191.193 184.649 193.769 178.748 196.04C172.765 198.344 167.115 200.521 158.936 200.521C149.404 200.521 141.491 197.613 134.505 195.047C128.875 192.979 124.01 191.193 119.034 191.193C114.06 191.193 109.198 192.979 103.566 195.047C96.5842 197.613 88.6696 200.521 79.1363 200.521C70.9577 200.521 65.3061 198.344 59.3228 196.04C53.4223 193.769 46.7309 191.193 38.1974 191.193C21.7849 191.193 4.08753 208.583 2.12433 209.654C2.12433 209.654 9.65602 205.185 15.9177 205.185C22.1794 205.185 28.3253 209.847 38.1983 209.847C43.266 209.847 47.3937 211.437 52.6231 213.451C59.2472 216.001 67.4903 219.175 79.1374 219.175C91.9876 219.175 102.398 215.353 109.999 212.561C113.46 211.288 117.379 209.847 119.035 209.847C120.697 209.847 124.615 211.288 128.074 212.561C135.675 215.353 146.084 219.175 158.937 219.175C170.582 219.175 178.826 216.001 185.452 213.451C190.676 211.437 194.807 209.847 199.873 209.847C209.748 209.847 213.82 205.185 222.156 205.185C230.556 205.185 236.03 209.652 236.03 209.652L235.949 209.654Z" fill="white" stroke="#20201E" stroke-width="4.1522" stroke-linecap="round" stroke-linejoin="round"/>
<path d="M137.13 20.586C136.463 20.3678 135.773 20.1835 135.071 20.0361C138.42 18.7918 140.815 15.5781 140.815 11.793C140.815 6.9354 136.879 3 132.022 3C127.165 3 123.227 6.9358 123.227 11.793C123.227 15.1681 125.129 18.0915 127.92 19.5692C102.681 21.2083 64.3663 54.4562 63.1456 110.749C62.6602 133.116 65.496 151.425 73.3075 164.724L157.758 164.121C170.104 148.544 181.458 128.828 181.458 102.977C181.458 68.584 156.352 26.8732 137.13 20.5621V20.586Z" fill="white" stroke="#20201E" stroke-width="4.1522"/>
<path d="M162.424 83.8067C153.14 53.5102 128.629 23.8517 107.015 19.9348C110.228 18.6245 112.489 15.4721 112.489 11.7946C112.489 6.93699 108.553 3.00159 103.696 3.00159C98.8401 3.00159 94.9015 6.93739 94.9015 11.7946C94.9015 15.2248 96.8724 18.1928 99.7405 19.6413C98.2489 19.8041 96.7849 20.1144 95.3533 20.5875C76.1788 26.8982 51.6227 69.2953 51.6227 102.98C51.6227 127.827 61.6893 149.231 73.3074 164.726L157.758 164.123C165.749 150.784 175.533 126.622 162.414 83.8007L162.424 83.8067Z" fill="white" stroke="#20201E" stroke-width="4.1522"/>
<path d="M157.485 199.366C146.873 194.498 131.84 191.032 116.753 191.032C101.658 191.032 87.5283 194.104 74.853 199.678C87.5279 205.248 101.423 208.488 116.514 208.488C131.615 208.488 144.828 204.933 157.507 199.364L157.485 199.366Z" fill="white" stroke="black" stroke-width="3.1886" stroke-linejoin="bevel"/>
<path d="M153.081 170.013L153.073 170.002C142.791 165.582 130.963 161.877 115.66 161.877C100.342 161.877 88.5308 165.585 78.2462 170.013C78.2462 170.013 75.9419 184.981 75.7192 188.361C75.372 193.542 74.8513 199.673 74.8513 199.673C87.5262 194.1 101.656 191.028 116.751 191.028C131.549 191.028 144.989 193.988 157.483 199.361C157.035 195.213 156.516 191.069 155.48 184.851C154.914 181.547 153.058 169.97 153.058 169.97L153.081 170.013Z" fill="white" stroke="#20201E" stroke-width="4.1522" stroke-linejoin="bevel"/>
<path d="M74.8372 199.68C87.5121 194.107 101.642 191.035 116.737 191.035C131.535 191.035 144.975 193.995 157.469 199.368C157.148 195.898 156.38 193.735 155.896 189.307C143.341 184.909 130.612 182.664 116.542 182.664C102.312 182.664 88.2116 185.248 75.5357 189.742C75.4728 193.643 74.8121 199.683 74.8121 199.683L74.8372 199.68Z" fill="white" stroke="#20201E" stroke-width="4.1522" stroke-linejoin="bevel"/>
<path d="M78.235 170.013C88.5183 165.589 100.341 161.8 115.661 161.702C128.705 161.616 142.794 165.582 153.077 170.006C153.641 169.441 156.03 168.716 157.76 164.117C149.113 154.755 136.256 149.865 115.662 149.865C93.6868 149.865 81.9547 155.345 73.3092 164.719C75.0081 169.312 77.6508 169.438 78.2171 170.004L78.235 170.013Z" fill="white" stroke="#20201E" stroke-width="4.1522"/>
<path d="M115.674 149.878V161.707" stroke="black" stroke-width="3.1886"/>
<path d="M137.539 86.6099L133.418 90.7313H112.716V72.0624L116.838 67.941L108.532 59.6416L100.226 67.941L104.379 72.1064V90.7313H83.5834L79.462 86.6099L71.1563 94.9156L79.462 103.221L83.6149 99.0684H104.379V121.878L100.226 126.03L108.532 134.336L116.838 126.03L112.716 121.909V99.0684H133.386L137.539 103.221L145.845 94.9156L137.539 86.6099Z" fill="white" stroke="black" stroke-width="2.4221"/>
</svg>
