<svg width="157" height="70" viewBox="0 0 157 70" fill="none" xmlns="http://www.w3.org/2000/svg">
<path d="M76.3275 13.6647C68.4303 18.7371 64.4629 28.4751 67.136 37.9099L67.2391 38.2736H67.6171H74.0655H74.57L74.5654 37.769C74.5369 34.6193 75.2084 30.8375 76.4856 27.3387C77.6924 24.0326 79.4226 21.0271 81.5659 19.0449C84.9849 23.5277 86.9404 28.7588 86.9404 34.3396C86.9404 45.2733 79.4206 54.8958 68.0952 60.1168C56.7698 54.8958 49.25 45.2733 49.25 34.3396C49.25 23.406 56.7698 13.7834 68.0952 8.56246C71.1358 9.96421 73.9047 11.6852 76.3275 13.6647Z" fill="#706C61" stroke="black"/>
<rect x="42.8015" y="52.0094" width="50.5872" height="17.4906" rx="4.5" fill="#706C61" stroke="black"/>
<path d="M77.9126 8.58491C77.9126 12.9957 73.8636 16.6698 68.74 16.6698C63.6164 16.6698 59.5674 12.9957 59.5674 8.58491C59.5674 4.17414 63.6164 0.5 68.74 0.5C73.8636 0.5 77.9126 4.17414 77.9126 8.58491Z" fill="#706C61" stroke="black"/>
<path d="M92.599 64.1006V57.1366H87.4403L92.599 64.1006Z" fill="#323232"/>
<path d="M69.3848 52.6541L87.4403 57.1366L87.4403 52.6541H69.3848Z" fill="#323232"/>
<path d="M87.618 52.6541C85.5371 52.6541 83.823 54.1764 83.5966 56.1347L87.4403 57.1366L89.8593 60.2895C91.4529 59.7627 92.599 58.2992 92.599 56.5763C92.599 54.4101 90.7872 52.6541 88.5523 52.6541H87.618Z" fill="#323232"/>
<path d="M70.6746 51.5094C78.5095 51.5094 84.861 43.0535 84.861 32.6226C84.861 27.9589 83.5914 23.6899 81.487 20.3951C85.0418 24.4141 86.2727 29.6729 86.2727 35.4843C86.2727 41.5881 83.7316 47.2674 79.5002 51.5094H70.6746Z" fill="#323232"/>
<path d="M69.8291 51.4765C70.1089 51.4983 70.3907 51.5094 70.6746 51.5094H69.7703C69.7899 51.4985 69.8096 51.4875 69.8291 51.4765Z" fill="#323232"/>
<path d="M10.8808 58.7308L15.9198 16.6538H45.9848L51.0238 58.7308H10.8808Z" fill="#F4F3F3" stroke="black"/>
<path d="M15.4761 21.5385H46.4285L51.5872 64.6154L41.2697 26.9231L15.4761 21.5385Z" fill="#E1E5EA"/>
<rect x="0.5" y="54.3462" width="60.9048" height="15.1538" rx="4.5" fill="#F4F3F3" stroke="black"/>
<path d="M5.67527 15.3865L5.68143 15.3158L5.66766 15.2462C5.66182 15.2166 5.65869 15.1858 5.65869 15.1538V1C5.65869 0.738472 5.88192 0.5 6.19044 0.5H15.2084C15.4578 0.5 15.6615 0.660243 15.7218 0.869762L16.2023 0.731646L15.7218 0.869762L18.6067 10.9073L18.7107 11.2692H19.0873H23.7301H24.1434L24.2212 10.8633L26.1281 0.911501L25.637 0.817408L26.1281 0.911499C26.1717 0.683826 26.3832 0.5 26.6514 0.5H35.2533C35.5215 0.5 35.733 0.683826 35.7766 0.911501L37.6835 10.8633L37.7613 11.2692H38.1746H42.8174H43.194L43.298 10.9073L46.1829 0.869762C46.2431 0.660244 46.4469 0.5 46.6963 0.5H55.7142C56.0228 0.5 56.246 0.738472 56.246 1V15.1538C56.246 15.1858 56.2429 15.2166 56.237 15.2462L56.2233 15.3158L56.2294 15.3865C56.2404 15.5126 56.246 15.6402 56.246 15.7692V16.5385C56.246 19.0091 54.1751 21.0385 51.5873 21.0385H10.3174C7.72963 21.0385 5.65869 19.0091 5.65869 16.5385V15.7692C5.65869 15.6402 5.6643 15.5126 5.67527 15.3865Z" fill="#F4F3F3" stroke="black"/>
<path d="M55.7144 1.0769V16.1538H51.5874L55.7144 1.0769Z" fill="#E1E5EA"/>
<path d="M37.1428 20.4615L51.5873 16.1538V20.4615H37.1428Z" fill="#E1E5EA"/>
<path fill-rule="evenodd" clip-rule="evenodd" d="M48.5022 17.1199C48.64 18.9884 50.1997 20.4615 52.1034 20.4615C54.0978 20.4615 55.7145 18.8448 55.7145 16.8504V16.5342C55.7145 14.6771 54.3127 13.1474 52.5094 12.9456L51.5874 16.1538L48.5022 17.1199Z" fill="#E1E5EA"/>
<path d="M60.8728 65.1538V59.2308H56.7458L60.8728 65.1538Z" fill="#E1E5EA"/>
<path d="M42.3015 54.9231L56.746 59.2308V54.9231H42.3015Z" fill="#E1E5EA"/>
<path fill-rule="evenodd" clip-rule="evenodd" d="M57.2619 54.9231C55.3581 54.9231 53.7985 56.3962 53.6606 58.2647L56.7458 59.2308H56.746L58.6365 62.1907C59.949 61.6499 60.873 60.3581 60.873 58.8504V58.5342C60.873 56.5398 59.2562 54.9231 57.2619 54.9231Z" fill="#E1E5EA"/>
<g filter="url(#filter0_d)">
<path d="M32.72 38.04C32.72 35.32 33.3333 32.88 34.56 30.72C35.7867 28.5333 37.4533 26.8267 39.56 25.6C41.6933 24.3733 44.0533 23.76 46.64 23.76C49.68 23.76 52.3333 24.4933 54.6 25.96C56.8667 27.4267 58.52 29.5067 59.56 32.2H55.2C54.4267 30.52 53.3067 29.2267 51.84 28.32C50.4 27.4133 48.6667 26.96 46.64 26.96C44.6933 26.96 42.9467 27.4133 41.4 28.32C39.8533 29.2267 38.64 30.52 37.76 32.2C36.88 33.8533 36.44 35.8 36.44 38.04C36.44 40.2533 36.88 42.2 37.76 43.88C38.64 45.5333 39.8533 46.8133 41.4 47.72C42.9467 48.6267 44.6933 49.08 46.64 49.08C48.6667 49.08 50.4 48.64 51.84 47.76C53.3067 46.8533 54.4267 45.56 55.2 43.88H59.56C58.52 46.5467 56.8667 48.6133 54.6 50.08C52.3333 51.52 49.68 52.24 46.64 52.24C44.0533 52.24 41.6933 51.64 39.56 50.44C37.4533 49.2133 35.7867 47.52 34.56 45.36C33.3333 43.2 32.72 40.76 32.72 38.04ZM75.8584 29.68C77.5118 29.68 79.0051 30.04 80.3384 30.76C81.6718 31.4533 82.7118 32.5067 83.4584 33.92C84.2318 35.3333 84.6184 37.0533 84.6184 39.08V52H81.0184V39.6C81.0184 37.4133 80.4718 35.7467 79.3784 34.6C78.2851 33.4267 76.7918 32.84 74.8984 32.84C72.9784 32.84 71.4451 33.44 70.2984 34.64C69.1784 35.84 68.6184 37.5867 68.6184 39.88V52H64.9784V22.4H68.6184V33.2C69.3384 32.08 70.3251 31.2133 71.5784 30.6C72.8584 29.9867 74.2851 29.68 75.8584 29.68ZM110.564 40.2C110.564 40.8933 110.524 41.6267 110.444 42.4H92.9244C93.0577 44.56 93.791 46.2533 95.1244 47.48C96.4844 48.68 98.1244 49.28 100.044 49.28C101.618 49.28 102.924 48.92 103.964 48.2C105.031 47.4533 105.778 46.4667 106.204 45.24H110.124C109.538 47.3467 108.364 49.0667 106.604 50.4C104.844 51.7067 102.658 52.36 100.044 52.36C97.9644 52.36 96.0977 51.8933 94.4444 50.96C92.8177 50.0267 91.5377 48.7067 90.6044 47C89.671 45.2667 89.2044 43.2667 89.2044 41C89.2044 38.7333 89.6577 36.7467 90.5644 35.04C91.471 33.3333 92.7377 32.0267 94.3644 31.12C96.0177 30.1867 97.911 29.72 100.044 29.72C102.124 29.72 103.964 30.1733 105.564 31.08C107.164 31.9867 108.391 33.24 109.244 34.84C110.124 36.4133 110.564 38.2 110.564 40.2ZM106.804 39.44C106.804 38.0533 106.498 36.8667 105.884 35.88C105.271 34.8667 104.431 34.1067 103.364 33.6C102.324 33.0667 101.164 32.8 99.8844 32.8C98.0444 32.8 96.471 33.3867 95.1644 34.56C93.8844 35.7333 93.151 37.36 92.9644 39.44H106.804ZM123.129 52.36C121.449 52.36 119.942 52.08 118.609 51.52C117.276 50.9333 116.222 50.1333 115.449 49.12C114.676 48.08 114.249 46.8933 114.169 45.56H117.929C118.036 46.6533 118.542 47.5467 119.449 48.24C120.382 48.9333 121.596 49.28 123.089 49.28C124.476 49.28 125.569 48.9733 126.369 48.36C127.169 47.7467 127.569 46.9733 127.569 46.04C127.569 45.08 127.142 44.3733 126.289 43.92C125.436 43.44 124.116 42.9733 122.329 42.52C120.702 42.0933 119.369 41.6667 118.329 41.24C117.316 40.7867 116.436 40.1333 115.689 39.28C114.969 38.4 114.609 37.2533 114.609 35.84C114.609 34.72 114.942 33.6933 115.609 32.76C116.276 31.8267 117.222 31.0933 118.449 30.56C119.676 30 121.076 29.72 122.649 29.72C125.076 29.72 127.036 30.3333 128.529 31.56C130.022 32.7867 130.822 34.4667 130.929 36.6H127.289C127.209 35.4533 126.742 34.5333 125.889 33.84C125.062 33.1467 123.942 32.8 122.529 32.8C121.222 32.8 120.182 33.08 119.409 33.64C118.636 34.2 118.249 34.9333 118.249 35.84C118.249 36.56 118.476 37.16 118.929 37.64C119.409 38.0933 119.996 38.4667 120.689 38.76C121.409 39.0267 122.396 39.3333 123.649 39.68C125.222 40.1067 126.502 40.5333 127.489 40.96C128.476 41.36 129.316 41.9733 130.009 42.8C130.729 43.6267 131.102 44.7067 131.129 46.04C131.129 47.24 130.796 48.32 130.129 49.28C129.462 50.24 128.516 51 127.289 51.56C126.089 52.0933 124.702 52.36 123.129 52.36ZM144.028 52.36C142.348 52.36 140.841 52.08 139.508 51.52C138.174 50.9333 137.121 50.1333 136.348 49.12C135.574 48.08 135.148 46.8933 135.068 45.56H138.828C138.934 46.6533 139.441 47.5467 140.348 48.24C141.281 48.9333 142.494 49.28 143.988 49.28C145.374 49.28 146.468 48.9733 147.268 48.36C148.068 47.7467 148.468 46.9733 148.468 46.04C148.468 45.08 148.041 44.3733 147.188 43.92C146.334 43.44 145.014 42.9733 143.228 42.52C141.601 42.0933 140.268 41.6667 139.228 41.24C138.214 40.7867 137.334 40.1333 136.588 39.28C135.868 38.4 135.508 37.2533 135.508 35.84C135.508 34.72 135.841 33.6933 136.508 32.76C137.174 31.8267 138.121 31.0933 139.348 30.56C140.574 30 141.974 29.72 143.548 29.72C145.974 29.72 147.934 30.3333 149.428 31.56C150.921 32.7867 151.721 34.4667 151.828 36.6H148.188C148.108 35.4533 147.641 34.5333 146.788 33.84C145.961 33.1467 144.841 32.8 143.428 32.8C142.121 32.8 141.081 33.08 140.308 33.64C139.534 34.2 139.148 34.9333 139.148 35.84C139.148 36.56 139.374 37.16 139.828 37.64C140.308 38.0933 140.894 38.4667 141.588 38.76C142.308 39.0267 143.294 39.3333 144.548 39.68C146.121 40.1067 147.401 40.5333 148.388 40.96C149.374 41.36 150.214 41.9733 150.908 42.8C151.628 43.6267 152.001 44.7067 152.028 46.04C152.028 47.24 151.694 48.32 151.028 49.28C150.361 50.24 149.414 51 148.188 51.56C146.988 52.0933 145.601 52.36 144.028 52.36Z" fill="#00ADB5"/>
</g>
<defs>
<filter id="filter0_d" x="28.72" y="22.4" width="127.308" height="37.96" filterUnits="userSpaceOnUse" color-interpolation-filters="sRGB">
<feFlood flood-opacity="0" result="BackgroundImageFix"/>
<feColorMatrix in="SourceAlpha" type="matrix" values="0 0 0 0 0 0 0 0 0 0 0 0 0 0 0 0 0 0 127 0"/>
<feOffset dy="4"/>
<feGaussianBlur stdDeviation="2"/>
<feColorMatrix type="matrix" values="0 0 0 0 0 0 0 0 0 0 0 0 0 0 0 0 0 0 0.25 0"/>
<feBlend mode="normal" in2="BackgroundImageFix" result="effect1_dropShadow"/>
<feBlend mode="normal" in="SourceGraphic" in2="effect1_dropShadow" result="shape"/>
</filter>
</defs>
</svg>
